<svg xmlns="http://www.w3.org/2000/svg" xmlns:xlink="http://www.w3.org/1999/xlink" width="84" height="84" viewBox="0 0 84 84">
    <defs>
        <circle id="prefix__a" cx="40" cy="40" r="40"/>
    </defs>
    <g fill="none" fill-rule="evenodd" transform="translate(2 2)">
        <mask id="prefix__b" fill="#fff">
            <use xlink:href="#prefix__a"/>
        </mask>
        <circle cx="40" cy="40" r="41" stroke="#FFF" stroke-width="2"/>
        <g mask="url(#prefix__b)">
            <g>
                <path fill="#FFCDB2" d="M14.619 16.562v18.164c0 2.966 1.254 5.793 3.452 7.783 2.132 1.931 5.14 2.564 7.87 1.654l9.001-2.998-9.783 3.256-.55 8.346 10.333 6.147 7.806-1.872 1.195-19.819c.865-6.272 1.298-10.773 1.298-13.503 0-2.73-.433-5.637-1.298-8.72L14.62 16.562z" transform="translate(7 8)"/>
                <path fill="#17001F" d="M9 11.174v1.034c0 1.902 1.002 3.663 2.638 4.634l2.936 1.743h12.222c4.61 0 8.347 3.737 8.347 8.347 1.333 0 2.56-.727 3.202-1.895l.958-1.746c.63-1.149 1.956-1.73 3.228-1.414 1.295.322 2.252 1.42 2.392 2.747l.097.915c.157 1.475-.28 2.951-1.211 4.105l-.066.081c-.886 1.096-2.192 1.77-3.598 1.857l-.398.025c-1.017.063-1.81.906-1.81 1.925 0 1.151.5 2.246 1.368 3.003l.288.25c.9.784 2.052 1.215 3.246 1.215 1.091 0 2.047-.733 2.33-1.787l.828-3.083c.114-.422.282-.828.5-1.206l3.113-5.379.157-.272C51.23 23.744 52 20.874 52 17.953v-.563c0-2.424-1.25-4.676-3.308-5.957V9.507c0-2.184-1.069-4.23-2.861-5.478-1.876-1.306-4.058-2.104-6.333-2.315l-.442-.04c-2.55-.237-5.112.3-7.353 1.539l-.258.143-.46-.513C29.411 1.093 27.003.353 24.72.917c-2.406.595-4.55 1.967-6.098 3.902L17.17 6.637h-2.93c-1.318 0-2.598.44-3.636 1.252C9.59 8.679 9 9.89 9 11.174z" transform="translate(7 8)"/>
                <path fill="#FFB086" d="M25.15 44.381c1.378-.494 2.661-1.023 3.85-1.587 1.189-.564 2.855-1.495 5-2.794-1.915 1.852-3.415 3.14-4.5 3.864-1.085.723-2.556 1.427-4.412 2.112l.061-1.595z" transform="translate(7 8)"/>
                <path fill="#4200D4" d="M43.218 50l7.85 2.847c10.035 3.64 16.76 13.098 16.929 23.743L68 77H0c0-10.817 6.757-20.482 16.917-24.197L24.58 50h.25c1.544 3.532 5.068 6 9.169 6 4.1 0 7.625-2.468 9.168-6h.05z" transform="translate(7 8)"/>
            </g>
        </g>
    </g>
</svg>
