<svg xmlns="http://www.w3.org/2000/svg" width="40" height="41" viewBox="0 0 40 41">
    <g fill="none" fill-rule="evenodd">
        <path fill="#4200D4" fill-rule="nonzero" d="M12.903 1.032c1.38-1.38 3.603-1.372 4.974-.001l2.225 2.225 2.169-2.216.009-.01c1.37-1.37 3.6-1.37 4.971 0l.01.01 8.31 8.492h.913c1.939 0 3.516 1.577 3.516 3.516v23.437c0 1.939-1.577 3.516-3.516 3.516H3.516C1.577 40.001 0 38.424 0 36.485V13.048c0-1.939 1.577-3.516 3.516-3.516h.92zm17.722 29.476v3.634c0 .647-.525 1.171-1.172 1.171H2.343v1.172c0 .647.526 1.172 1.173 1.172h28.28c.647 0 1.173-.525 1.173-1.172v-5.86h-1.172c-.401 0-.793-.04-1.172-.117zm7.031-.084c-.367.13-.76.202-1.172.202h-1.172v5.86c0 .41-.071.804-.201 1.171h1.373c.647 0 1.172-.525 1.172-1.172zm-9.375-13.86H2.344V32.97H28.28v-3.52c-1.422-1.07-2.344-2.77-2.344-4.683 0-1.913.922-3.615 2.344-4.685v-3.519zm8.203 4.687h-4.687c-1.939 0-3.516 1.577-3.516 3.516 0 1.938 1.577 3.515 3.516 3.515h4.687c.647 0 1.172-.525 1.172-1.172v-4.687c0-.646-.525-1.172-1.172-1.172zm-4.687 2.344c.647 0 1.172.524 1.172 1.171 0 .648-.525 1.172-1.172 1.172-.647 0-1.172-.524-1.172-1.172 0-.647.525-1.171 1.172-1.171zm4.687-11.719h-1.373c.13.367.201.761.201 1.172v5.86h1.172c.411 0 .805.07 1.172.2v-6.06c0-.646-.525-1.172-1.172-1.172zm-4.687 0H3.516c-.647 0-1.172.526-1.172 1.172v1.172h27.11c.646 0 1.171.524 1.171 1.172v3.633c.379-.077.77-.118 1.172-.118h1.172v-5.86c0-.645-.526-1.171-1.172-1.171zM28.728 5.89l-3.535 3.641h7.099l-3.564-3.641zm-3.137-3.207c-.456-.452-1.194-.452-1.65 0l-6.702 6.848h4.687l5.163-5.317zm-9.372.004c-.457-.457-1.2-.457-1.657 0L7.744 9.532h6.216l4.503-4.6z"/>
    </g>
</svg>
