<svg xmlns="http://www.w3.org/2000/svg" width="20" height="20" viewBox="0 0 20 20">
    <g fill="none" fill-rule="evenodd">
        <path fill="#B68D3C" d="M11.012 10l5.127-6.111c.086-.102.013-.256-.12-.256h-1.558c-.092 0-.18.04-.24.111L9.992 8.785l-4.228-5.04c-.059-.071-.147-.112-.24-.112h-1.56c-.132 0-.204.154-.118.256L8.973 10l-5.127 6.111c-.086.102-.014.256.119.256h1.558c.092 0 .18-.04.24-.111l4.23-5.041 4.228 5.04c.058.071.146.112.24.112h1.559c.132 0 .205-.154.119-.256L11.012 10z"/>
    </g>
</svg>
