<svg xmlns="http://www.w3.org/2000/svg" width="36" height="36" viewBox="0 0 36 36">
    <g fill="none" fill-rule="evenodd">
        <g stroke="#4200D4" stroke-width="1.4" transform="translate(8 8)">
            <path d="M11.818 11.818v6.364c0 1.004 1.628 1.818 3.637 1.818 2.008 0 3.636-.814 3.636-1.818v-6.364"/>
            <path d="M11.818 10.91v3.635c0 1.005 1.628 1.819 3.637 1.819 2.008 0 3.636-.814 3.636-1.819V10.91"/>
            <ellipse cx="15.455" cy="10.909" rx="3.636" ry="1.818"/>
            <path d="M9.091 19.091L1.818 19.091 1.818 10.909M10.91 6.364c-1.13 1.506-3.267 1.811-4.774.681-.258-.193-.488-.423-.681-.681h0C4.325 7.87 2.188 8.175.682 7.045.423 6.852.194 6.622 0 6.364h0L1.818 0h16.364L20 7.273"/>
        </g>
    </g>
</svg>
