<svg width="50" height="65" viewBox="0 0 50 65" fill="none" xmlns="http://www.w3.org/2000/svg">
    <path fill-rule="evenodd" clip-rule="evenodd" d="M5 65H45C47.7778 65 50 62.606 50 59.6544V5.31282C50 2.39405 47.7778 0 45 0H5C2.25309 0 0 2.36125 0 5.31282V59.6872C0 62.606 2.22222 65 5 65ZM3.82716 5.31282C3.82716 4.62412 4.38272 4.0666 5 4.0666H45C45.6481 4.0666 46.1728 4.65691 46.1728 5.31282V59.6544C46.1728 60.3431 45.6173 60.9006 45 60.9006H5C4.35185 60.9006 3.82716 60.3103 3.82716 59.6544V5.31282Z" fill="#4200D4"/>
    <path fill-rule="evenodd" clip-rule="evenodd" d="M15.5434 10.9859H33.9381V15.087H15.5434V10.9859ZM9.25928 21.1566H40.2527V25.2577H9.25928V21.1566ZM40.2527 31.0321H9.25928V35.1332H40.2527V31.0321ZM32.4128 58.5915C27.837 58.5915 24.0849 54.5889 24.0849 49.6347C24.0849 44.6806 27.8065 40.6779 32.4128 40.6779C37.0191 40.6779 40.7408 44.6806 40.7408 49.6347C40.7408 54.5889 36.9886 58.5915 32.4128 58.5915ZM27.898 49.6347C27.898 46.9444 29.9114 44.779 32.4128 44.779C34.8837 44.779 36.9276 46.9444 36.9276 49.6347C36.9276 52.325 34.9142 54.4904 32.4128 54.4904C29.9114 54.4904 27.898 52.325 27.898 49.6347Z" fill="#4200D4"/>
    <path fill-rule="evenodd" clip-rule="evenodd" d="M18.4891 47.6057H9.25928V51.2676H18.4891V47.6057ZM34.2593 47.6057H30.439V51.2676H34.2593V47.6057Z" fill="#4200D4"/>
</svg>