<svg width="22" height="22" viewBox="0 0 22 22" fill="none" xmlns="http://www.w3.org/2000/svg">
    <path d="M8.9375 0H1.375C0.61875 0 -3.22266e-08 0.61875 0 1.375V8.9375C0 9.69375 0.61875 10.3125 1.375 10.3125H8.9375C9.69375 10.3125 10.3125 9.69375 10.3125 8.9375V1.375C10.3125 0.61875 9.69375 -3.22266e-08 8.9375 0ZM8.9375 8.9375H1.375V1.375H8.9375V8.9375ZM20.625 0H13.0625C12.3063 0 11.6875 0.61875 11.6875 1.375V8.9375C11.6875 9.69375 12.3063 10.3125 13.0625 10.3125H20.625C21.3813 10.3125 22 9.69375 22 8.9375V1.375C22 0.61875 21.3813 -3.22266e-08 20.625 0ZM20.625 8.9375H13.0625V1.375H20.625V8.9375ZM8.9375 11.6875H1.375C0.61875 11.6875 -3.22266e-08 12.3063 0 13.0625V20.625C0 21.3813 0.61875 22 1.375 22H8.9375C9.69375 22 10.3125 21.3813 10.3125 20.625V13.0625C10.3125 12.3063 9.69375 11.6875 8.9375 11.6875ZM8.9375 20.625H1.375V13.0625H8.9375V20.625ZM20.625 11.6875H13.0625C12.3063 11.6875 11.6875 12.3063 11.6875 13.0625V20.625C11.6875 21.3813 12.3063 22 13.0625 22H20.625C21.3813 22 22 21.3813 22 20.625V13.0625C22 12.3063 21.3813 11.6875 20.625 11.6875ZM20.625 20.625H13.0625V13.0625H20.625V20.625Z" fill="#4200D4"/>
</svg>